<svg width="1000" height="1000" viewBox="0 0 1000 1000" fill="none" xmlns="http://www.w3.org/2000/svg">
<path d="M254 85L264 95L254 105" stroke="#595959" stroke-width="1.8"/>
<path d="M224 85L214 95L224 105" stroke="#595959" stroke-width="1.8"/>
<path d="M179 90L184 95L179 100" stroke="#595959" stroke-width="1.8"/>
<path d="M149 90L144 95L149 100" stroke="#595959" stroke-width="1.8"/>
<path d="M114 93L110 97L106 93" stroke="white" stroke-width="1.8"/>
<path d="M178.23 152H132.23V198H178.23V152Z" fill="#EF000E"/>
<path d="M172.57 165.679C172.117 164.136 170.936 162.865 169.393 162.501C166.488 161.684 155.139 161.684 155.139 161.684C155.139 161.684 143.79 161.684 140.976 162.411C139.432 162.865 138.161 164.045 137.798 165.679C137.072 168.494 137.072 174.395 137.072 174.395C137.072 174.395 137.072 180.296 137.798 183.111C138.252 184.654 139.432 185.925 140.976 186.288C143.79 187.105 155.139 187.105 155.139 187.105C155.139 187.105 166.488 187.105 169.393 186.379C170.936 185.925 172.207 184.745 172.57 183.201C173.297 180.387 173.297 174.486 173.297 174.486C173.297 174.486 173.297 168.494 172.57 165.679ZM151.507 179.842V168.947L160.949 174.395L151.507 179.842Z" fill="white"/>
<path d="M117.23 152H71.23V198H117.23V152Z" fill="#EF000E"/>
<path d="M112.116 167.555C112.025 165.649 111.753 164.287 111.299 163.107C110.845 161.926 110.118 160.837 109.21 159.929C108.303 159.021 107.213 158.295 106.033 157.841C104.853 157.387 103.581 157.114 101.584 157.024C99.6775 156.842 99.042 156.842 94.1394 156.842C89.2367 156.842 88.6012 156.842 86.6946 156.933C84.7881 157.024 83.4262 157.296 82.246 157.75C81.0657 158.204 79.9762 158.93 79.0683 159.838C78.1604 160.746 77.4341 161.835 76.9802 163.016C76.5262 164.196 76.2538 165.467 76.1631 167.464C76.0723 169.371 76.0723 170.007 76.0723 175C76.0723 179.993 76.0723 180.538 76.1631 182.445C76.2538 184.351 76.5262 185.713 76.9802 186.893C77.4341 188.074 78.1604 189.163 79.0683 190.071C79.9762 190.979 81.0657 191.705 82.246 192.159C83.4262 192.613 84.6973 192.885 86.6946 192.976C88.5104 193.158 89.146 193.158 94.0486 193.158C98.9512 193.158 99.5867 193.158 101.493 193.067C103.4 192.976 104.762 192.704 105.942 192.25C108.393 191.342 110.3 189.345 111.299 186.893C111.753 185.713 112.025 184.442 112.116 182.445C112.206 180.538 112.206 179.903 112.206 175C112.206 170.097 112.206 169.462 112.116 167.555ZM108.847 182.354C108.756 184.17 108.484 185.078 108.212 185.713C107.576 187.257 106.305 188.528 104.762 189.163C104.126 189.435 103.128 189.708 101.403 189.799C99.496 189.889 98.9512 189.889 94.0486 189.889C89.2367 189.889 88.6012 189.889 86.6946 189.799C84.8788 189.708 83.971 189.435 83.3354 189.163C82.5183 188.891 81.792 188.437 81.2473 187.801C80.6117 187.257 80.1578 186.53 79.8854 185.713C79.6131 185.078 79.3407 184.079 79.2499 182.354C79.1591 180.447 79.1591 179.903 79.1591 175C79.1591 170.097 79.1591 169.553 79.2499 167.646C79.3407 165.83 79.6131 164.922 79.8854 164.287C80.1578 163.47 80.6117 162.743 81.2473 162.199C81.792 161.563 82.5183 161.109 83.3354 160.837C83.971 160.564 84.9696 160.292 86.6946 160.201C88.6012 160.11 89.146 160.11 94.0486 160.11C98.8604 160.11 99.496 160.11 101.403 160.201C103.218 160.292 104.126 160.564 104.762 160.837C105.579 161.109 106.305 161.563 106.85 162.199C107.485 162.743 107.939 163.47 108.212 164.287C108.484 164.922 108.756 165.921 108.847 167.646C108.938 169.553 108.938 170.097 108.938 175C108.938 179.903 108.938 180.447 108.847 182.354Z" fill="white"/>
<path d="M94.1394 165.649C88.9644 165.649 84.7881 169.825 84.7881 175C84.7881 180.175 88.9644 184.351 94.1394 184.351C99.3144 184.351 103.491 180.175 103.491 175C103.491 169.825 99.2236 165.649 94.1394 165.649ZM94.1394 181.083C90.7802 181.083 88.0565 178.359 88.0565 175C88.0565 171.641 90.7802 168.917 94.1394 168.917C97.4986 168.917 100.222 171.641 100.222 175C100.222 178.359 97.4078 181.083 94.1394 181.083Z" fill="white"/>
<path d="M105.942 165.285C105.942 166.466 104.943 167.464 103.763 167.464C102.583 167.464 101.584 166.466 101.584 165.285C101.584 164.105 102.583 163.107 103.763 163.107C105.034 163.107 105.942 164.105 105.942 165.285Z" fill="white"/>
<path d="M56.23 152H10V198H56.23V152Z" fill="#EF000E"/>
<path d="M28.8536 177.258C28.672 177.258 25.676 177.258 24.3141 177.258C23.5878 177.258 23.3154 176.987 23.3154 176.265C23.3154 174.458 23.3154 172.561 23.3154 170.754C23.3154 170.031 23.5878 169.76 24.3141 169.76H28.8536C28.8536 169.58 28.8536 166.96 28.8536 165.785C28.8536 163.979 29.2167 162.262 30.1246 160.636C31.1233 159.01 32.4852 157.926 34.2102 157.294C35.2996 157.023 36.3891 156.842 37.6602 156.842H42.1089C42.7444 156.842 43.0167 157.113 43.0167 157.745V162.895C43.0167 163.527 42.7444 163.798 42.1089 163.798C40.8378 163.798 39.6575 163.798 38.3865 163.888C37.1154 163.888 36.4799 164.521 36.4799 165.785C36.3891 167.141 36.4799 168.496 36.4799 169.851H41.7457C42.472 169.851 42.7444 170.122 42.7444 170.844V176.355C42.7444 177.078 42.472 177.349 41.7457 177.349C40.1115 177.349 36.5707 177.349 36.4799 177.349V192.074C36.4799 192.887 36.2075 193.158 35.3904 193.158C33.4839 193.158 31.5773 193.158 29.6707 193.158C28.9444 193.158 28.672 192.887 28.672 192.164C28.8536 187.286 28.8536 177.349 28.8536 177.258Z" fill="white"/>
<path fill-rule="evenodd" clip-rule="evenodd" d="M45 130C64.33 130 80 114.33 80 95C80 75.67 64.33 60 45 60C25.67 60 10 75.67 10 95C10 114.33 25.67 130 45 130ZM37 108.856L61 95L37 81.1436V108.856Z" fill="white"/>
<path d="M338.496 23.6685L325.036 11.4038C324.445 10.8654 323.554 10.8654 322.964 11.4037L309.504 23.6685C309.031 24.0998 308.874 24.7642 309.105 25.3613C309.337 25.9583 309.9 26.344 310.54 26.344H312.69V38.6323C312.69 39.1195 313.085 39.5145 313.572 39.5145H320.95C321.437 39.5145 321.832 39.1195 321.832 38.6323V31.1712H326.168V38.6323C326.168 39.1195 326.563 39.5146 327.05 39.5146H334.428C334.915 39.5146 335.31 39.1196 335.31 38.6323V26.344H337.46C338.1 26.344 338.664 25.9582 338.895 25.3613C339.126 24.7642 338.969 24.0998 338.496 23.6685Z" fill="#EF000E"/>
<path d="M335.08 12.761H329.155L335.962 18.9506V13.6432C335.962 13.156 335.567 12.761 335.08 12.761Z" fill="#EF000E"/>
<path d="M259.264 16.4911L268.363 25.4348L259.264 34.3785C259.1 34.0384 259 33.6624 259 33.2609V17.6087C259 17.2071 259.1 16.8312 259.264 16.4911Z" fill="#EF000E"/>
<path d="M261.637 15H286.363C286.769 15 287.149 15.0987 287.493 15.2614L275.864 26.7086C274.836 27.7259 273.164 27.7259 272.136 26.7086L260.507 15.2614C260.851 15.0987 261.231 15 261.637 15Z" fill="#EF000E"/>
<path d="M288.736 16.4911C288.9 16.8312 289 17.2071 289 17.6087V33.2609C289 33.6624 288.9 34.0384 288.736 34.3785L279.637 25.4348L288.736 16.4911Z" fill="#EF000E"/>
<path d="M269.605 26.6644L270.893 27.9382C272.606 29.6332 275.394 29.6332 277.107 27.9382L278.395 26.6644L287.493 35.6081C287.149 35.7708 286.769 35.8696 286.363 35.8696H261.637C261.231 35.8696 260.851 35.7708 260.507 35.6081L269.605 26.6644Z" fill="#EF000E"/>
<path d="M238.213 32.0169L234.018 27.8304C232.52 26.3352 229.972 26.9333 229.373 28.877C228.924 30.2228 227.425 30.9704 226.077 30.6713C223.08 29.9237 219.034 26.0361 218.285 22.8962C217.836 21.5504 218.735 20.0552 220.083 19.6067C222.031 19.0086 222.63 16.4668 221.132 14.9716L216.937 10.785C215.738 9.73834 213.94 9.73834 212.891 10.785L210.044 13.6259C207.197 16.6163 210.344 24.5409 217.386 31.5684C224.428 38.5959 232.37 41.8854 235.366 38.8949L238.213 36.054C239.262 34.8578 239.262 33.0636 238.213 32.0169Z" fill="#EF000E"/>
<path d="M422.064 10H409.152C407.963 10 407 10.9763 407 12.1818V27.4546H409.152V12.1818H422.064V10Z" fill="black"/>
<path d="M425.292 14.3636H413.456C412.267 14.3636 411.304 15.34 411.304 16.5454V31.8182C411.304 33.0236 412.267 34 413.456 34H425.292C426.481 34 427.444 33.0237 427.444 31.8182V16.5454C427.444 15.34 426.481 14.3636 425.292 14.3636ZM425.292 31.8182H413.456V16.5454H425.292V31.8182Z" fill="black"/>
<path d="M373 32L382 23L379 20.0001L375 24V10H371V24L367 20.0001L364 23L373 32Z" fill="black"/>
<path d="M359 34H387V38H359V34Z" fill="black"/>
<path d="M189.213 32.0169L185.018 27.8304C183.52 26.3352 180.972 26.9333 180.373 28.877C179.924 30.2228 178.425 30.9704 177.077 30.6713C174.08 29.9237 170.034 26.0361 169.285 22.8962C168.836 21.5504 169.735 20.0552 171.083 19.6067C173.031 19.0086 173.63 16.4668 172.132 14.9716L167.937 10.785C166.738 9.73834 164.94 9.73834 163.891 10.785L161.044 13.6259C158.197 16.6163 161.344 24.5409 168.386 31.5684C175.428 38.5959 183.37 41.8854 186.366 38.8949L189.213 36.054C190.262 34.8578 190.262 33.0636 189.213 32.0169Z" fill="white"/>
<path d="M121.52 16.2401C121.22 15.2201 120.44 14.3801 119.42 14.1401C117.5 13.6001 110 13.6001 110 13.6001C110 13.6001 102.5 13.6001 100.64 14.0801C99.6201 14.3801 98.7801 15.1601 98.5401 16.2401C98.0601 18.1001 98.0601 22.0001 98.0601 22.0001C98.0601 22.0001 98.0601 25.9001 98.5401 27.7601C98.8401 28.7801 99.6201 29.6201 100.64 29.8601C102.5 30.4001 110 30.4001 110 30.4001C110 30.4001 117.5 30.4001 119.42 29.9201C120.44 29.6201 121.28 28.8401 121.52 27.8201C122 25.9601 122 22.0601 122 22.0601C122 22.0601 122 18.1001 121.52 16.2401ZM107.6 25.6001V18.4001L113.84 22.0001L107.6 25.6001Z" fill="white"/>
<path d="M77.9401 17.08C77.8801 15.82 77.7001 14.92 77.4001 14.14C77.1001 13.36 76.6201 12.64 76.0201 12.04C75.4201 11.44 74.7001 10.96 73.9201 10.66C73.1401 10.36 72.3001 10.18 70.9801 10.12C69.7201 10 69.3001 10 66.0601 10C62.8201 10 62.4001 10 61.1401 10.06C59.8801 10.12 58.9801 10.3 58.2001 10.6C57.4201 10.9 56.7001 11.38 56.1001 11.98C55.5001 12.58 55.0201 13.3 54.7201 14.08C54.4201 14.86 54.2401 15.7 54.1801 17.02C54.1201 18.28 54.1201 18.7 54.1201 22C54.1201 25.3 54.1201 25.66 54.1801 26.92C54.2401 28.18 54.4201 29.08 54.7201 29.86C55.0201 30.64 55.5001 31.36 56.1001 31.96C56.7001 32.56 57.4201 33.04 58.2001 33.34C58.9801 33.64 59.8201 33.82 61.1401 33.88C62.3401 34 62.7601 34 66.0001 34C69.2401 34 69.6601 34 70.9201 33.94C72.1801 33.88 73.0801 33.7 73.8601 33.4C75.4801 32.8 76.7401 31.48 77.4001 29.86C77.7001 29.08 77.8801 28.24 77.9401 26.92C78.0001 25.66 78.0001 25.24 78.0001 22C78.0001 18.76 78.0001 18.34 77.9401 17.08ZM75.7801 26.86C75.7201 28.06 75.5401 28.66 75.3601 29.08C74.9401 30.1 74.1001 30.94 73.0801 31.36C72.6601 31.54 72.0001 31.72 70.8601 31.78C69.6001 31.84 69.2401 31.84 66.0001 31.84C62.8201 31.84 62.4001 31.84 61.1401 31.78C59.9401 31.72 59.3401 31.54 58.9201 31.36C58.3801 31.18 57.9001 30.88 57.5401 30.46C57.1201 30.1 56.8201 29.62 56.6401 29.08C56.4601 28.66 56.2801 28 56.2201 26.86C56.1601 25.6 56.1601 25.24 56.1601 22C56.1601 18.76 56.1601 18.4 56.2201 17.14C56.2801 15.94 56.4601 15.34 56.6401 14.92C56.8201 14.38 57.1201 13.9 57.5401 13.54C57.9001 13.12 58.3801 12.82 58.9201 12.64C59.3401 12.46 60.0001 12.28 61.1401 12.22C62.4001 12.16 62.7601 12.16 66.0001 12.16C69.1801 12.16 69.6001 12.16 70.8601 12.22C72.0601 12.28 72.6601 12.46 73.0801 12.64C73.6201 12.82 74.1001 13.12 74.4601 13.54C74.8801 13.9 75.1801 14.38 75.3601 14.92C75.5401 15.34 75.7201 16 75.7801 17.14C75.8401 18.4 75.8401 18.76 75.8401 22C75.8401 25.24 75.8401 25.6 75.7801 26.86Z" fill="white"/>
<path d="M66.0601 15.82C62.6401 15.82 59.8801 18.58 59.8801 22C59.8801 25.42 62.6401 28.18 66.0601 28.18C69.4801 28.18 72.2401 25.42 72.2401 22C72.2401 18.58 69.4201 15.82 66.0601 15.82ZM66.0601 26.02C63.8401 26.02 62.0401 24.22 62.0401 22C62.0401 19.78 63.8401 17.98 66.0601 17.98C68.2801 17.98 70.0801 19.78 70.0801 22C70.0801 24.22 68.2201 26.02 66.0601 26.02Z" fill="white"/>
<path d="M73.8601 15.58C73.8601 16.36 73.2001 17.02 72.4201 17.02C71.6401 17.02 70.9801 16.36 70.9801 15.58C70.9801 14.8 71.6401 14.14 72.4201 14.14C73.2601 14.14 73.8601 14.8 73.8601 15.58Z" fill="white"/>
<path d="M24.8597 23.4925C24.7397 23.4925 22.7597 23.4925 21.8597 23.4925C21.3797 23.4925 21.1997 23.3134 21.1997 22.8358C21.1997 21.6418 21.1997 20.3881 21.1997 19.194C21.1997 18.7164 21.3797 18.5373 21.8597 18.5373H24.8597C24.8597 18.4179 24.8597 16.6866 24.8597 15.9104C24.8597 14.7164 25.0997 13.5821 25.6997 12.5075C26.3597 11.4328 27.2597 10.7164 28.3997 10.2985C29.1197 10.1194 29.8397 10 30.6797 10H33.6197C34.0397 10 34.2197 10.1791 34.2197 10.597V14C34.2197 14.4179 34.0397 14.597 33.6197 14.597C32.7797 14.597 31.9997 14.597 31.1597 14.6567C30.3197 14.6567 29.8997 15.0746 29.8997 15.9104C29.8397 16.806 29.8997 17.7015 29.8997 18.597H33.3797C33.8597 18.597 34.0397 18.7761 34.0397 19.2537V22.8955C34.0397 23.3731 33.8597 23.5522 33.3797 23.5522C32.2997 23.5522 29.9597 23.5522 29.8997 23.5522V33.2836C29.8997 33.8209 29.7197 34 29.1797 34C27.9197 34 26.6597 34 25.3997 34C24.9197 34 24.7397 33.8209 24.7397 33.3433C24.8597 30.1194 24.8597 23.5522 24.8597 23.4925Z" fill="white"/>
</svg>
